<svg width="1440" height="1024" viewBox="0 0 1440 1024" fill="none" xmlns="http://www.w3.org/2000/svg">
<g style="mix-blend-mode:hard-light" opacity="0.2">
<path d="M677.55 369.289L677.566 369.273L676.869 369.344C660.48 371.032 648.386 364.122 640.405 352.446C632.414 340.756 628.544 324.28 628.662 306.867C628.781 289.458 632.887 271.138 640.819 255.776C648.751 240.413 660.499 228.025 675.895 222.439L1199.53 32.4428C1203.54 30.9888 1206.14 27.8477 1207.52 23.8843C1208.89 19.9257 1209.05 15.1391 1208.16 10.352C1206.38 0.790649 1200.42 -8.8808 1191.52 -12.007L672.369 -194.477L672.369 -194.477C670.59 -195.102 669.481 -196.301 668.925 -197.732C668.367 -199.169 668.362 -200.851 668.821 -202.429C669.741 -205.595 672.483 -208.241 676.187 -207.676C676.187 -207.676 676.187 -207.676 676.187 -207.676L1310.77 -110.756C1326.99 -108.276 1342.78 -94.9051 1353.48 -77.6499C1364.18 -60.3982 1369.74 -39.3299 1365.58 -21.5232L1194.46 710.812C1190.01 729.879 1182.51 740.968 1173.92 745.62C1165.34 750.262 1155.59 748.532 1146.53 741.781C1128.39 728.268 1113.12 694.702 1115.98 652.62L1138.4 322.171L1138.42 321.875L1138.12 321.905L677.55 369.289Z" stroke="#1D1E24" stroke-width="0.5"/>
<path d="M909.887 930.117L862.504 469.547L862.52 469.563L862.447 468.863C860.759 452.474 867.67 440.38 879.346 432.399C891.036 424.409 907.512 420.539 924.925 420.657C942.334 420.775 960.654 424.881 976.016 432.813C991.379 440.745 1003.77 452.494 1009.35 467.89L1199.35 991.524C1200.8 995.532 1203.94 998.137 1207.91 999.513C1211.87 1000.89 1216.65 1001.04 1221.44 1000.15C1231 998.373 1240.67 992.411 1243.8 983.517L1426.27 464.363C1426.89 462.584 1428.09 461.476 1429.52 460.92C1430.96 460.361 1432.64 460.356 1434.22 460.815C1437.39 461.735 1440.03 464.478 1439.47 468.181L1342.55 1102.77C1340.07 1118.99 1326.7 1134.78 1309.44 1145.47C1292.19 1156.17 1271.12 1161.73 1253.32 1157.58L520.98 986.459C501.913 982.005 490.824 974.506 486.172 965.91C481.53 957.333 483.259 947.587 490.011 938.524C503.524 920.383 537.09 905.113 579.172 907.972L909.621 930.392L909.917 930.412L909.887 930.117Z" stroke="#1D1E24" stroke-width="0.5"/>
<path d="M301.691 701.902L762.26 654.519L762.244 654.535L762.945 654.462C779.334 652.774 791.428 659.685 799.409 671.361C807.4 683.051 811.27 699.527 811.152 716.94C811.033 734.349 806.927 752.669 798.995 768.031C791.063 783.394 779.315 795.782 763.919 801.368L240.284 991.364C236.277 992.818 233.672 995.959 232.296 999.923C230.921 1003.88 230.769 1008.67 231.658 1013.45C233.436 1023.02 239.398 1032.69 248.292 1035.81L767.445 1218.28C769.224 1218.91 770.333 1220.11 770.889 1221.54C771.447 1222.98 771.452 1224.66 770.993 1226.24C770.073 1229.4 767.331 1232.05 763.627 1231.48L129.041 1134.56C112.821 1132.08 97.0321 1118.71 86.3344 1101.46C75.6389 1084.21 70.0744 1063.14 74.2325 1045.33L245.349 312.995C249.803 293.928 257.302 282.839 265.898 278.187C274.475 273.545 284.222 275.274 293.284 282.026C311.426 295.539 326.695 329.105 323.837 371.187L301.416 701.636L301.396 701.932L301.691 701.902Z" stroke="#1D1E24" stroke-width="0.5"/>
<path d="M529.908 93.6888L577.335 554.683H577.319L577.347 554.959C579.035 571.347 572.125 583.441 560.448 591.422C548.758 599.413 532.283 603.283 514.87 603.165C497.46 603.046 479.141 598.941 463.778 591.009C448.416 583.077 436.028 571.328 430.442 555.932L240.445 32.2976C238.991 28.29 235.85 25.685 231.887 24.309C227.928 22.9347 223.142 22.782 218.355 23.6718C208.793 25.449 199.122 31.4109 195.996 40.3048L13.5256 559.458C12.9006 561.237 11.7012 562.346 10.2706 562.902C8.83358 563.461 7.1513 563.466 5.57318 563.007C2.40781 562.087 -0.238164 559.344 0.326895 555.64L97.2466 -78.9621C99.7267 -95.1818 113.098 -110.97 130.353 -121.668C147.604 -132.364 168.673 -137.928 186.479 -133.77L918.815 37.3463C937.882 41.8005 948.97 49.2995 953.622 57.8953C958.264 66.4727 956.535 76.219 949.784 85.2818C936.27 103.423 902.705 118.693 860.622 115.834L530.173 93.4138L529.877 93.3938L529.908 93.6888Z" stroke="#1D1E24" stroke-width="0.5"/>
</g>
</svg>
